<?xml version="1.0" encoding="UTF-8"?>
<svg width="100px" height="100px" viewBox="0 0 100 100" version="1.1" xmlns="http://www.w3.org/2000/svg" xmlns:xlink="http://www.w3.org/1999/xlink">
    <defs></defs>
    <g stroke="none" stroke-width="1" fill="none" fill-rule="evenodd">
        <g id="revision-history">
            <circle fill="#00A1D5" cx="50" cy="50" r="50"></circle>
            <path d="M49.9999981,26.7499995 C37.1608315,26.7499995 26.7499995,37.1608328 26.7499995,49.9999981 L19,49.9999981 L29.3333327,60.3333309 L39.6666654,49.9999981 L31.9166659,49.9999981 C31.9166659,40.002499 40.002499,31.9166659 49.9999981,31.9166659 C59.997497,31.9166659 68.0833304,40.002499 68.0833304,49.9999981 C68.0833304,59.997497 59.997497,68.0833304 49.9999981,68.0833304 C46.0991643,68.0833304 42.482499,66.8174976 39.5116656,64.7249991 L35.8433323,68.4450001 C39.7699987,71.4416615 44.6783332,73.2499967 49.9999981,73.2499967 C62.8391671,73.2499967 73.2499967,62.8391622 73.2499967,49.9999981 C73.2499967,37.160834 62.8391622,26.7499995 49.9999981,26.7499995 Z" fill="#FFFFFF"></path>
        </g>
    </g>
</svg>